G75*
G70*
%OFA0B0*%
%FSLAX24Y24*%
%IPPOS*%
%LPD*%
%AMOC8*
5,1,8,0,0,1.08239X$1,22.5*
%
%ADD10C,0.0474*%
%ADD11C,0.0347*%
%ADD12OC8,0.0690*%
%ADD13R,0.0336X0.0277*%
%ADD14R,0.0789X0.0631*%
%ADD15R,0.0580X0.0300*%
%ADD16R,0.0300X0.0580*%
%ADD17R,0.0356X0.0867*%
%ADD18R,0.0277X0.0336*%
%ADD19C,0.0476*%
D10*
X001280Y001230D03*
X003314Y002330D03*
X005046Y002330D03*
X007080Y001230D03*
X005064Y017312D03*
X003096Y017312D03*
D11*
X003063Y012242D02*
X002897Y012242D01*
X002897Y012330D01*
X003063Y012330D01*
X003063Y012242D01*
X003063Y011542D02*
X002897Y011542D01*
X002897Y011630D01*
X003063Y011630D01*
X003063Y011542D01*
X001997Y007730D02*
X001997Y007642D01*
X001997Y007730D02*
X002163Y007730D01*
X002163Y007642D01*
X001997Y007642D01*
X001997Y007030D02*
X001997Y006942D01*
X001997Y007030D02*
X002163Y007030D01*
X002163Y006942D01*
X001997Y006942D01*
X005197Y006030D02*
X005363Y006030D01*
X005363Y005942D01*
X005197Y005942D01*
X005197Y006030D01*
X005197Y005330D02*
X005363Y005330D01*
X005363Y005242D01*
X005197Y005242D01*
X005197Y005330D01*
D12*
X004880Y012036D03*
X004880Y013036D03*
X004880Y014036D03*
X005880Y014036D03*
X005880Y013036D03*
X005880Y012036D03*
D13*
X003646Y012864D03*
X003646Y013179D03*
X003646Y013494D03*
X003646Y013808D03*
X003114Y013808D03*
X003114Y013494D03*
X003114Y013179D03*
X003114Y012864D03*
D14*
X007080Y013305D03*
X007080Y011967D03*
D15*
X005970Y009738D03*
X005970Y009423D03*
X005970Y009108D03*
X005970Y008794D03*
X005970Y008479D03*
X005970Y008164D03*
X005970Y007849D03*
X005970Y007534D03*
X002590Y007534D03*
X002590Y007849D03*
X002590Y008164D03*
X002590Y008479D03*
X002590Y008794D03*
X002590Y009108D03*
X002590Y009423D03*
X002590Y009738D03*
D16*
X003178Y010326D03*
X003493Y010326D03*
X003808Y010326D03*
X004123Y010326D03*
X004437Y010326D03*
X004752Y010326D03*
X005067Y010326D03*
X005382Y010326D03*
X005382Y006946D03*
X005067Y006946D03*
X004752Y006946D03*
X004437Y006946D03*
X004123Y006946D03*
X003808Y006946D03*
X003493Y006946D03*
X003178Y006946D03*
D17*
X002674Y005936D03*
X002280Y005936D03*
X001886Y005936D03*
D18*
X002037Y011370D03*
X002037Y011902D03*
X001723Y011902D03*
X001723Y011370D03*
X001408Y011370D03*
X001408Y011902D03*
X002352Y011902D03*
X002352Y011370D03*
D19*
X002080Y012436D03*
X001680Y012836D03*
X002680Y013436D03*
X003680Y014236D03*
X004080Y016836D03*
X004080Y011236D03*
X004880Y011036D03*
X004080Y008636D03*
X003680Y005836D03*
X004480Y005836D03*
X002880Y004836D03*
X002280Y005036D03*
X001680Y002236D03*
X001280Y008036D03*
X001880Y009836D03*
X006280Y006336D03*
X007080Y004836D03*
X006480Y002136D03*
M02*
