G75*
G70*
%OFA0B0*%
%FSLAX24Y24*%
%IPPOS*%
%LPD*%
%AMOC8*
5,1,8,0,0,1.08239X$1,22.5*
%
%ADD10C,0.0283*%
%ADD11R,0.0197X0.0256*%
%ADD12R,0.0276X0.0787*%
%ADD13R,0.0551X0.0709*%
%ADD14R,0.0500X0.0220*%
%ADD15R,0.0220X0.0500*%
%ADD16R,0.0984X0.0787*%
%ADD17R,0.0984X0.0591*%
%ADD18R,0.0787X0.0945*%
%ADD19R,0.0197X0.0909*%
D10*
X001855Y006950D02*
X001855Y007022D01*
X001855Y006950D02*
X001705Y006950D01*
X001705Y007022D01*
X001855Y007022D01*
X001855Y007650D02*
X001855Y007722D01*
X001855Y007650D02*
X001705Y007650D01*
X001705Y007722D01*
X001855Y007722D01*
X001905Y014522D02*
X002055Y014522D01*
X002055Y014450D01*
X001905Y014450D01*
X001905Y014522D01*
X001905Y015222D02*
X002055Y015222D01*
X002055Y015150D01*
X001905Y015150D01*
X001905Y015222D01*
X002905Y015250D02*
X003055Y015250D01*
X002905Y015250D02*
X002905Y015322D01*
X003055Y015322D01*
X003055Y015250D01*
X003055Y014550D02*
X002905Y014550D01*
X002905Y014622D01*
X003055Y014622D01*
X003055Y014550D01*
D11*
X003608Y005302D03*
X003608Y004770D03*
X003923Y004770D03*
X003923Y005302D03*
X004237Y005302D03*
X004237Y004770D03*
X004552Y004770D03*
X004552Y005302D03*
D12*
X001886Y005936D03*
X002280Y005936D03*
X002674Y005936D03*
D13*
X004411Y014949D03*
X005749Y014949D03*
D14*
X005870Y009838D03*
X005870Y009523D03*
X005870Y009208D03*
X005870Y008894D03*
X005870Y008579D03*
X005870Y008264D03*
X005870Y007949D03*
X005870Y007634D03*
X002490Y007634D03*
X002490Y007949D03*
X002490Y008264D03*
X002490Y008579D03*
X002490Y008894D03*
X002490Y009208D03*
X002490Y009523D03*
X002490Y009838D03*
D15*
X003078Y010426D03*
X003393Y010426D03*
X003708Y010426D03*
X004023Y010426D03*
X004337Y010426D03*
X004652Y010426D03*
X004967Y010426D03*
X005282Y010426D03*
X005282Y007046D03*
X004967Y007046D03*
X004652Y007046D03*
X004337Y007046D03*
X004023Y007046D03*
X003708Y007046D03*
X003393Y007046D03*
X003078Y007046D03*
D16*
X002604Y019319D03*
X005556Y019319D03*
D17*
X005556Y015835D03*
X002604Y015835D03*
D18*
X002448Y003314D03*
X002448Y001149D03*
X005912Y001149D03*
X005912Y003314D03*
D19*
X004810Y003536D03*
X004495Y003536D03*
X004180Y003536D03*
X003865Y003536D03*
X003550Y003536D03*
M02*
