G75*
G70*
%OFA0B0*%
%FSLAX24Y24*%
%IPPOS*%
%LPD*%
%AMOC8*
5,1,8,0,0,1.08239X$1,22.5*
%
%ADD10C,0.0474*%
%ADD11C,0.0347*%
%ADD12OC8,0.0690*%
%ADD13R,0.0277X0.0336*%
%ADD14R,0.0356X0.0867*%
%ADD15R,0.0631X0.0789*%
%ADD16R,0.0580X0.0300*%
%ADD17R,0.0300X0.0580*%
%ADD18R,0.1064X0.0867*%
%ADD19R,0.1064X0.0671*%
%ADD20R,0.0867X0.1025*%
%ADD21R,0.0277X0.0989*%
%ADD22C,0.0476*%
D10*
X001280Y001230D03*
X003314Y002330D03*
X005046Y002330D03*
X007080Y001230D03*
X005064Y017312D03*
X003096Y017312D03*
D11*
X003063Y015242D02*
X002897Y015242D01*
X002897Y015330D01*
X003063Y015330D01*
X003063Y015242D01*
X003063Y014542D02*
X002897Y014542D01*
X002897Y014630D01*
X003063Y014630D01*
X003063Y014542D01*
X002063Y014530D02*
X001897Y014530D01*
X002063Y014530D02*
X002063Y014442D01*
X001897Y014442D01*
X001897Y014530D01*
X001897Y015230D02*
X002063Y015230D01*
X002063Y015142D01*
X001897Y015142D01*
X001897Y015230D01*
X001863Y007730D02*
X001863Y007642D01*
X001697Y007642D01*
X001697Y007730D01*
X001863Y007730D01*
X001863Y007030D02*
X001863Y006942D01*
X001697Y006942D01*
X001697Y007030D01*
X001863Y007030D01*
D12*
X004880Y012036D03*
X004880Y013036D03*
X004880Y014036D03*
X005880Y014036D03*
X005880Y013036D03*
X005880Y012036D03*
D13*
X004552Y005302D03*
X004552Y004770D03*
X004237Y004770D03*
X004237Y005302D03*
X003923Y005302D03*
X003923Y004770D03*
X003608Y004770D03*
X003608Y005302D03*
D14*
X002674Y005936D03*
X002280Y005936D03*
X001886Y005936D03*
D15*
X004411Y014949D03*
X005749Y014949D03*
D16*
X005870Y009838D03*
X005870Y009523D03*
X005870Y009208D03*
X005870Y008894D03*
X005870Y008579D03*
X005870Y008264D03*
X005870Y007949D03*
X005870Y007634D03*
X002490Y007634D03*
X002490Y007949D03*
X002490Y008264D03*
X002490Y008579D03*
X002490Y008894D03*
X002490Y009208D03*
X002490Y009523D03*
X002490Y009838D03*
D17*
X003078Y010426D03*
X003393Y010426D03*
X003708Y010426D03*
X004023Y010426D03*
X004337Y010426D03*
X004652Y010426D03*
X004967Y010426D03*
X005282Y010426D03*
X005282Y007046D03*
X004967Y007046D03*
X004652Y007046D03*
X004337Y007046D03*
X004023Y007046D03*
X003708Y007046D03*
X003393Y007046D03*
X003078Y007046D03*
D18*
X002604Y019319D03*
X005556Y019319D03*
D19*
X005556Y015835D03*
X002604Y015835D03*
D20*
X002448Y003314D03*
X002448Y001149D03*
X005912Y001149D03*
X005912Y003314D03*
D21*
X004810Y003536D03*
X004495Y003536D03*
X004180Y003536D03*
X003865Y003536D03*
X003550Y003536D03*
D22*
X002880Y004836D03*
X002280Y005036D03*
X001680Y002236D03*
X003680Y005836D03*
X004480Y005836D03*
X004080Y008636D03*
X004880Y011036D03*
X004080Y011236D03*
X003680Y014236D03*
X004080Y016836D03*
X002680Y013436D03*
X002080Y012436D03*
X001680Y012836D03*
X001880Y009836D03*
X001280Y008036D03*
X006280Y006336D03*
X007080Y004836D03*
X006480Y002136D03*
M02*
