G75*
G70*
%OFA0B0*%
%FSLAX24Y24*%
%IPPOS*%
%LPD*%
%AMOC8*
5,1,8,0,0,1.08239X$1,22.5*
%
%ADD10C,0.0283*%
%ADD11R,0.0256X0.0197*%
%ADD12R,0.0709X0.0551*%
%ADD13R,0.0500X0.0220*%
%ADD14R,0.0220X0.0500*%
%ADD15R,0.0276X0.0787*%
%ADD16R,0.0197X0.0256*%
D10*
X002005Y006950D02*
X002005Y007022D01*
X002155Y007022D01*
X002155Y006950D01*
X002005Y006950D01*
X002005Y007650D02*
X002005Y007722D01*
X002155Y007722D01*
X002155Y007650D01*
X002005Y007650D01*
X002905Y011550D02*
X003055Y011550D01*
X002905Y011550D02*
X002905Y011622D01*
X003055Y011622D01*
X003055Y011550D01*
X003055Y012250D02*
X002905Y012250D01*
X002905Y012322D01*
X003055Y012322D01*
X003055Y012250D01*
X005205Y006022D02*
X005355Y006022D01*
X005355Y005950D01*
X005205Y005950D01*
X005205Y006022D01*
X005205Y005322D02*
X005355Y005322D01*
X005355Y005250D01*
X005205Y005250D01*
X005205Y005322D01*
D11*
X003646Y012864D03*
X003646Y013179D03*
X003646Y013494D03*
X003646Y013808D03*
X003114Y013808D03*
X003114Y013494D03*
X003114Y013179D03*
X003114Y012864D03*
D12*
X007080Y013305D03*
X007080Y011967D03*
D13*
X005970Y009738D03*
X005970Y009423D03*
X005970Y009108D03*
X005970Y008794D03*
X005970Y008479D03*
X005970Y008164D03*
X005970Y007849D03*
X005970Y007534D03*
X002590Y007534D03*
X002590Y007849D03*
X002590Y008164D03*
X002590Y008479D03*
X002590Y008794D03*
X002590Y009108D03*
X002590Y009423D03*
X002590Y009738D03*
D14*
X003178Y010326D03*
X003493Y010326D03*
X003808Y010326D03*
X004123Y010326D03*
X004437Y010326D03*
X004752Y010326D03*
X005067Y010326D03*
X005382Y010326D03*
X005382Y006946D03*
X005067Y006946D03*
X004752Y006946D03*
X004437Y006946D03*
X004123Y006946D03*
X003808Y006946D03*
X003493Y006946D03*
X003178Y006946D03*
D15*
X001886Y005936D03*
X002280Y005936D03*
X002674Y005936D03*
D16*
X002352Y011370D03*
X002352Y011902D03*
X002037Y011902D03*
X002037Y011370D03*
X001723Y011370D03*
X001723Y011902D03*
X001408Y011902D03*
X001408Y011370D03*
M02*
