G75*
G70*
%OFA0B0*%
%FSLAX24Y24*%
%IPPOS*%
%LPD*%
%AMOC8*
5,1,8,0,0,1.08239X$1,22.5*
%
%ADD10C,0.0283*%
%ADD11OC8,0.0610*%
%ADD12R,0.0197X0.0256*%
%ADD13R,0.0276X0.0787*%
%ADD14R,0.0551X0.0709*%
%ADD15R,0.0500X0.0220*%
%ADD16R,0.0220X0.0500*%
%ADD17R,0.0984X0.0787*%
%ADD18R,0.0984X0.0591*%
%ADD19R,0.0787X0.0945*%
%ADD20R,0.0197X0.0909*%
%ADD21C,0.0160*%
%ADD22C,0.0396*%
D10*
X001855Y006950D02*
X001855Y007022D01*
X001855Y006950D02*
X001705Y006950D01*
X001705Y007022D01*
X001855Y007022D01*
X001855Y007650D02*
X001855Y007722D01*
X001855Y007650D02*
X001705Y007650D01*
X001705Y007722D01*
X001855Y007722D01*
X001905Y014522D02*
X002055Y014522D01*
X002055Y014450D01*
X001905Y014450D01*
X001905Y014522D01*
X001905Y015222D02*
X002055Y015222D01*
X002055Y015150D01*
X001905Y015150D01*
X001905Y015222D01*
X002905Y015250D02*
X003055Y015250D01*
X002905Y015250D02*
X002905Y015322D01*
X003055Y015322D01*
X003055Y015250D01*
X003055Y014550D02*
X002905Y014550D01*
X002905Y014622D01*
X003055Y014622D01*
X003055Y014550D01*
D11*
X004880Y014036D03*
X004880Y013036D03*
X004880Y012036D03*
X005880Y012036D03*
X005880Y013036D03*
X005880Y014036D03*
D12*
X004552Y005302D03*
X004552Y004770D03*
X004237Y004770D03*
X004237Y005302D03*
X003923Y005302D03*
X003923Y004770D03*
X003608Y004770D03*
X003608Y005302D03*
D13*
X002674Y005936D03*
X002280Y005936D03*
X001886Y005936D03*
D14*
X004411Y014949D03*
X005749Y014949D03*
D15*
X005870Y009838D03*
X005870Y009523D03*
X005870Y009208D03*
X005870Y008894D03*
X005870Y008579D03*
X005870Y008264D03*
X005870Y007949D03*
X005870Y007634D03*
X002490Y007634D03*
X002490Y007949D03*
X002490Y008264D03*
X002490Y008579D03*
X002490Y008894D03*
X002490Y009208D03*
X002490Y009523D03*
X002490Y009838D03*
D16*
X003078Y010426D03*
X003393Y010426D03*
X003708Y010426D03*
X004023Y010426D03*
X004337Y010426D03*
X004652Y010426D03*
X004967Y010426D03*
X005282Y010426D03*
X005282Y007046D03*
X004967Y007046D03*
X004652Y007046D03*
X004337Y007046D03*
X004023Y007046D03*
X003708Y007046D03*
X003393Y007046D03*
X003078Y007046D03*
D17*
X002604Y019319D03*
X005556Y019319D03*
D18*
X005556Y015835D03*
X002604Y015835D03*
D19*
X002448Y003314D03*
X002448Y001149D03*
X005912Y001149D03*
X005912Y003314D03*
D20*
X004810Y003536D03*
X004495Y003536D03*
X004180Y003536D03*
X003865Y003536D03*
X003550Y003536D03*
D21*
X001160Y001907D02*
X001160Y006388D01*
X001569Y005980D01*
X001569Y005468D01*
X001674Y005362D01*
X002099Y005362D01*
X002103Y005367D01*
X002119Y005362D01*
X002280Y005362D01*
X002441Y005362D01*
X002457Y005367D01*
X002461Y005362D01*
X002886Y005362D01*
X002991Y005468D01*
X002991Y006404D01*
X002940Y006456D01*
X002940Y006488D01*
X002900Y006583D01*
X002827Y006656D01*
X002354Y007130D01*
X002568Y007344D01*
X002788Y007344D01*
X002788Y006721D01*
X002893Y006616D01*
X005467Y006616D01*
X005572Y006721D01*
X005572Y007344D01*
X006195Y007344D01*
X006300Y007449D01*
X006300Y007689D01*
X006660Y007689D01*
X006820Y007528D01*
X006820Y005111D01*
X006759Y005050D01*
X006702Y004911D01*
X006702Y004761D01*
X006759Y004622D01*
X006866Y004515D01*
X007005Y004458D01*
X007155Y004458D01*
X007192Y004473D01*
X007192Y001907D01*
X006945Y001907D01*
X006697Y001804D01*
X006506Y001613D01*
X006486Y001564D01*
X006486Y001696D01*
X006381Y001801D01*
X005475Y001801D01*
X005620Y001946D01*
X005723Y002195D01*
X005723Y002464D01*
X005641Y002662D01*
X006381Y002662D01*
X006486Y002767D01*
X006486Y003861D01*
X006381Y003966D01*
X005444Y003966D01*
X005339Y003861D01*
X005339Y002941D01*
X005181Y003007D01*
X005073Y003007D01*
X005076Y003012D01*
X005088Y003058D01*
X005088Y003536D01*
X004810Y003536D01*
X004810Y003536D01*
X005088Y003536D01*
X005088Y004014D01*
X005076Y004060D01*
X005052Y004101D01*
X005019Y004134D01*
X004978Y004158D01*
X004932Y004170D01*
X004810Y004170D01*
X004810Y003536D01*
X004810Y003536D01*
X004810Y004170D01*
X004688Y004170D01*
X004672Y004166D01*
X004668Y004170D01*
X004582Y004170D01*
X004773Y004361D01*
X004812Y004457D01*
X004812Y004549D01*
X004831Y004568D01*
X004831Y004973D01*
X004768Y005036D01*
X004831Y005099D01*
X004831Y005504D01*
X004812Y005523D01*
X004812Y005651D01*
X004858Y005761D01*
X004858Y005911D01*
X004801Y006050D01*
X004694Y006157D01*
X004555Y006214D01*
X004405Y006214D01*
X004266Y006157D01*
X004159Y006050D01*
X004102Y005911D01*
X004102Y005761D01*
X004159Y005622D01*
X004172Y005610D01*
X003988Y005610D01*
X004001Y005622D01*
X004058Y005761D01*
X004058Y005911D01*
X004001Y006050D01*
X003894Y006157D01*
X003755Y006214D01*
X003605Y006214D01*
X003466Y006157D01*
X003359Y006050D01*
X003302Y005911D01*
X003302Y005761D01*
X003348Y005651D01*
X003348Y005523D01*
X003329Y005504D01*
X003329Y005099D01*
X003392Y005036D01*
X003329Y004973D01*
X003329Y004568D01*
X003348Y004549D01*
X003348Y004536D01*
X003219Y004665D01*
X003258Y004761D01*
X003258Y004911D01*
X003201Y005050D01*
X003094Y005157D01*
X002955Y005214D01*
X002805Y005214D01*
X002666Y005157D01*
X002559Y005050D01*
X002502Y004911D01*
X002502Y004761D01*
X002559Y004622D01*
X002636Y004545D01*
X002660Y004489D01*
X002733Y004416D01*
X003272Y003877D01*
X003272Y003007D01*
X003272Y003007D01*
X003179Y003007D01*
X003021Y002941D01*
X003021Y003861D01*
X002916Y003966D01*
X001979Y003966D01*
X001874Y003861D01*
X001874Y002767D01*
X001979Y002662D01*
X002719Y002662D01*
X002637Y002464D01*
X002637Y002195D01*
X002740Y001946D01*
X002885Y001801D01*
X001979Y001801D01*
X001874Y001696D01*
X001874Y001564D01*
X001854Y001613D01*
X001663Y001804D01*
X001415Y001907D01*
X001160Y001907D01*
X001160Y002021D02*
X002709Y002021D01*
X002643Y002180D02*
X001160Y002180D01*
X001160Y002338D02*
X002637Y002338D01*
X002650Y002497D02*
X001160Y002497D01*
X001160Y002655D02*
X002716Y002655D01*
X003021Y002972D02*
X003096Y002972D01*
X003021Y003131D02*
X003272Y003131D01*
X003272Y003289D02*
X003021Y003289D01*
X003021Y003448D02*
X003272Y003448D01*
X003272Y003606D02*
X003021Y003606D01*
X003021Y003765D02*
X003272Y003765D01*
X003225Y003923D02*
X002959Y003923D01*
X003067Y004082D02*
X001160Y004082D01*
X001160Y004240D02*
X002908Y004240D01*
X002880Y004636D02*
X002880Y004836D01*
X002880Y004636D02*
X003550Y003966D01*
X003550Y003536D01*
X003865Y003536D02*
X003880Y003551D01*
X003880Y004236D01*
X003608Y004508D01*
X003608Y004770D01*
X003389Y005033D02*
X003208Y005033D01*
X003258Y004874D02*
X003329Y004874D01*
X003329Y004716D02*
X003239Y004716D01*
X003327Y004557D02*
X003340Y004557D01*
X003329Y005191D02*
X003011Y005191D01*
X002991Y005508D02*
X003333Y005508D01*
X003329Y005350D02*
X001160Y005350D01*
X001160Y005508D02*
X001569Y005508D01*
X001569Y005667D02*
X001160Y005667D01*
X001160Y005825D02*
X001569Y005825D01*
X001565Y005984D02*
X001160Y005984D01*
X001160Y006142D02*
X001406Y006142D01*
X001248Y006301D02*
X001160Y006301D01*
X001280Y006636D02*
X001280Y007236D01*
X001330Y007236D01*
X001780Y007686D01*
X002043Y007949D01*
X002490Y007949D01*
X002490Y007634D02*
X001842Y006986D01*
X002130Y006986D01*
X002680Y006436D01*
X002680Y005942D01*
X002674Y005936D01*
X002940Y006459D02*
X006820Y006459D01*
X006820Y006301D02*
X002991Y006301D01*
X002991Y006142D02*
X003451Y006142D01*
X003332Y005984D02*
X002991Y005984D01*
X002991Y005825D02*
X003302Y005825D01*
X003341Y005667D02*
X002991Y005667D01*
X002749Y005191D02*
X001160Y005191D01*
X001160Y005033D02*
X002552Y005033D01*
X002502Y004874D02*
X001160Y004874D01*
X001160Y004716D02*
X002521Y004716D01*
X002624Y004557D02*
X001160Y004557D01*
X001160Y004399D02*
X002750Y004399D01*
X002733Y004416D02*
X002733Y004416D01*
X002280Y005362D02*
X002280Y005936D01*
X002280Y005936D01*
X002280Y005362D01*
X002280Y005508D02*
X002280Y005508D01*
X002280Y005667D02*
X002280Y005667D01*
X002280Y005825D02*
X002280Y005825D01*
X001886Y005936D02*
X001886Y006030D01*
X001280Y006636D01*
X001780Y006986D02*
X001842Y006986D01*
X001280Y008036D02*
X001508Y008264D01*
X002490Y008264D01*
X002490Y008579D02*
X002060Y008579D01*
X002490Y008579D01*
X002490Y008579D01*
X002920Y008579D01*
X002920Y009208D01*
X002490Y009208D01*
X002490Y009208D01*
X002060Y009208D01*
X002060Y009154D01*
X001540Y009154D01*
X001540Y012485D01*
X001605Y012458D01*
X001702Y012458D01*
X001702Y012361D01*
X001759Y012222D01*
X001866Y012115D01*
X002005Y012058D01*
X002155Y012058D01*
X002163Y012061D01*
X003133Y011388D01*
X003133Y010856D01*
X002893Y010856D01*
X002788Y010751D01*
X002788Y010128D01*
X002165Y010128D01*
X002060Y010023D01*
X002060Y009342D01*
X002060Y009208D01*
X002490Y009208D01*
X002490Y009208D01*
X002490Y009226D01*
X002480Y009236D01*
X002490Y009233D02*
X002490Y009208D01*
X002920Y009208D01*
X002920Y009996D01*
X005440Y009996D01*
X005440Y009024D01*
X005440Y008894D01*
X005870Y008894D01*
X005870Y008893D01*
X005440Y008893D01*
X005440Y008760D01*
X005440Y007476D01*
X002920Y007476D01*
X002920Y008579D01*
X002490Y008579D01*
X002490Y008579D01*
X002490Y008894D02*
X001537Y008894D01*
X001280Y008636D01*
X001280Y008036D01*
X001280Y013036D01*
X001680Y013436D01*
X002480Y013436D01*
X001980Y013936D01*
X001980Y014486D01*
X001591Y014486D01*
X001591Y014525D01*
X001280Y014836D01*
X001280Y017996D01*
X002604Y019319D01*
X002398Y018746D02*
X003170Y018746D01*
X003276Y018851D01*
X003276Y019564D01*
X004884Y019564D01*
X004884Y018851D01*
X004990Y018746D01*
X006123Y018746D01*
X006229Y018851D01*
X006229Y019564D01*
X007192Y019564D01*
X007192Y007892D01*
X006915Y008169D01*
X006819Y008209D01*
X006300Y008209D01*
X006300Y008893D01*
X005870Y008893D01*
X005870Y008894D01*
X006300Y008894D01*
X006300Y009297D01*
X006315Y009303D01*
X007027Y010016D01*
X007100Y010089D01*
X007140Y010184D01*
X007140Y014664D01*
X007143Y014674D01*
X007140Y014716D01*
X007140Y014757D01*
X007136Y014767D01*
X007135Y014777D01*
X007116Y014814D01*
X007100Y014853D01*
X007093Y014860D01*
X007088Y014869D01*
X007057Y014896D01*
X007027Y014926D01*
X007018Y014930D01*
X006229Y015603D01*
X006229Y016205D01*
X006123Y016311D01*
X004990Y016311D01*
X004884Y016205D01*
X004884Y015465D01*
X004990Y015360D01*
X005294Y015360D01*
X005294Y014520D01*
X005399Y014414D01*
X005489Y014414D01*
X005489Y014331D01*
X005395Y014237D01*
X005395Y013835D01*
X005679Y013551D01*
X006081Y013551D01*
X006365Y013835D01*
X006365Y014237D01*
X006144Y014458D01*
X006205Y014520D01*
X006205Y014940D01*
X006620Y014585D01*
X006620Y012664D01*
X006365Y012919D01*
X006365Y013237D01*
X006081Y013521D01*
X005679Y013521D01*
X005395Y013237D01*
X005395Y012835D01*
X005679Y012551D01*
X005997Y012551D01*
X006027Y012521D01*
X005679Y012521D01*
X005395Y012237D01*
X005395Y011835D01*
X005679Y011551D01*
X006081Y011551D01*
X006220Y011690D01*
X006220Y011544D01*
X005972Y011296D01*
X005155Y011296D01*
X005094Y011357D01*
X004955Y011414D01*
X004805Y011414D01*
X004666Y011357D01*
X004559Y011250D01*
X004502Y011111D01*
X004502Y010961D01*
X004545Y010856D01*
X004306Y010856D01*
X004327Y010948D01*
X004401Y011022D01*
X004458Y011161D01*
X004458Y011311D01*
X004401Y011450D01*
X004294Y011557D01*
X004155Y011614D01*
X004005Y011614D01*
X003968Y011599D01*
X003968Y011778D01*
X003972Y011799D01*
X003968Y011830D01*
X003968Y011860D01*
X003959Y011880D01*
X003956Y011901D01*
X003940Y011927D01*
X003928Y011956D01*
X003913Y011971D01*
X003901Y011989D01*
X003877Y012007D01*
X003855Y012029D01*
X003835Y012037D01*
X002449Y013035D01*
X002427Y013056D01*
X002407Y013065D01*
X002390Y013077D01*
X002360Y013084D01*
X002332Y013096D01*
X002310Y013096D01*
X002289Y013101D01*
X002259Y013096D01*
X001955Y013096D01*
X001894Y013157D01*
X001847Y013176D01*
X002405Y013176D01*
X002466Y013115D01*
X002605Y013058D01*
X002690Y013058D01*
X002733Y013016D01*
X002828Y012976D01*
X003772Y012976D01*
X004453Y012295D01*
X004395Y012237D01*
X004395Y011835D01*
X004679Y011551D01*
X005081Y011551D01*
X005365Y011835D01*
X005365Y012237D01*
X005081Y012521D01*
X004963Y012521D01*
X004933Y012551D01*
X005081Y012551D01*
X005365Y012835D01*
X005365Y013237D01*
X005081Y013521D01*
X004679Y013521D01*
X004395Y013237D01*
X004395Y013089D01*
X004027Y013456D01*
X003932Y013496D01*
X003058Y013496D01*
X003058Y013511D01*
X003001Y013650D01*
X002894Y013757D01*
X002840Y013779D01*
X002840Y013907D01*
X003055Y014229D01*
X003119Y014229D01*
X003237Y014278D01*
X003285Y014326D01*
X004100Y014326D01*
X004195Y014366D01*
X004244Y014414D01*
X004572Y014414D01*
X004395Y014237D01*
X004395Y014050D01*
X004866Y014050D01*
X004866Y014521D01*
X004866Y015378D01*
X004761Y015483D01*
X004061Y015483D01*
X003955Y015378D01*
X003955Y014861D01*
X003940Y014846D01*
X003285Y014846D01*
X003237Y014894D01*
X003131Y014938D01*
X003149Y014942D01*
X003207Y014966D01*
X003260Y015001D01*
X003305Y015046D01*
X003340Y015098D01*
X003364Y015157D01*
X003377Y015219D01*
X003377Y015278D01*
X002988Y015278D01*
X002988Y015294D01*
X003377Y015294D01*
X003377Y015353D01*
X003364Y015415D01*
X003340Y015474D01*
X003305Y015526D01*
X003276Y015555D01*
X003276Y015768D01*
X002671Y015768D01*
X002671Y015903D01*
X002536Y015903D01*
X002536Y016311D01*
X002088Y016311D01*
X002042Y016298D01*
X002001Y016275D01*
X001967Y016241D01*
X001944Y016200D01*
X001931Y016154D01*
X001931Y015903D01*
X002536Y015903D01*
X002536Y015768D01*
X001931Y015768D01*
X001931Y015543D01*
X001873Y015543D01*
X001811Y015531D01*
X001753Y015506D01*
X001700Y015471D01*
X001655Y015426D01*
X001620Y015374D01*
X001596Y015315D01*
X001583Y015253D01*
X001583Y015194D01*
X001972Y015194D01*
X001972Y015178D01*
X001583Y015178D01*
X001583Y015119D01*
X001596Y015057D01*
X001620Y014998D01*
X001655Y014946D01*
X001700Y014901D01*
X001753Y014866D01*
X001811Y014842D01*
X001829Y014838D01*
X001723Y014794D01*
X001706Y014777D01*
X001540Y014944D01*
X001540Y017888D01*
X002398Y018746D01*
X002315Y018664D02*
X007192Y018664D01*
X007192Y018822D02*
X006199Y018822D01*
X006229Y018981D02*
X007192Y018981D01*
X007192Y019139D02*
X006229Y019139D01*
X006229Y019298D02*
X007192Y019298D01*
X007192Y019456D02*
X006229Y019456D01*
X005448Y017885D02*
X005638Y017695D01*
X005741Y017446D01*
X005741Y017177D01*
X005638Y016928D01*
X005448Y016738D01*
X005199Y016635D01*
X004930Y016635D01*
X004681Y016738D01*
X004490Y016928D01*
X004387Y017177D01*
X004387Y017446D01*
X004490Y017695D01*
X004681Y017885D01*
X004930Y017988D01*
X005199Y017988D01*
X005448Y017885D01*
X005462Y017871D02*
X007192Y017871D01*
X007192Y017713D02*
X005621Y017713D01*
X005696Y017554D02*
X007192Y017554D01*
X007192Y017396D02*
X005741Y017396D01*
X005741Y017237D02*
X007192Y017237D01*
X007192Y017079D02*
X005700Y017079D01*
X005630Y016920D02*
X007192Y016920D01*
X007192Y016762D02*
X005471Y016762D01*
X005556Y015835D02*
X006880Y014705D01*
X006880Y010236D01*
X006167Y009523D01*
X005870Y009523D01*
X005440Y009471D02*
X002920Y009471D01*
X002920Y009629D02*
X005440Y009629D01*
X005440Y009788D02*
X002920Y009788D01*
X002920Y009946D02*
X005440Y009946D01*
X005440Y009312D02*
X002920Y009312D01*
X002920Y009154D02*
X005440Y009154D01*
X005440Y008995D02*
X002920Y008995D01*
X002920Y008837D02*
X005440Y008837D01*
X005440Y008678D02*
X002920Y008678D01*
X002920Y008520D02*
X005440Y008520D01*
X005440Y008361D02*
X002920Y008361D01*
X002920Y008203D02*
X005440Y008203D01*
X005440Y008044D02*
X002920Y008044D01*
X002920Y007886D02*
X005440Y007886D01*
X005440Y007727D02*
X002920Y007727D01*
X002920Y007569D02*
X005440Y007569D01*
X005572Y007252D02*
X006820Y007252D01*
X006820Y007410D02*
X006261Y007410D01*
X006300Y007569D02*
X006780Y007569D01*
X007080Y007636D02*
X006767Y007949D01*
X005870Y007949D01*
X005572Y007093D02*
X006820Y007093D01*
X006820Y006935D02*
X005572Y006935D01*
X005572Y006776D02*
X006820Y006776D01*
X006820Y006618D02*
X005468Y006618D01*
X004858Y005825D02*
X006820Y005825D01*
X006820Y005667D02*
X004819Y005667D01*
X004827Y005508D02*
X006820Y005508D01*
X006820Y005350D02*
X004831Y005350D01*
X004831Y005191D02*
X006820Y005191D01*
X006752Y005033D02*
X004771Y005033D01*
X004831Y004874D02*
X006702Y004874D01*
X006721Y004716D02*
X004831Y004716D01*
X004820Y004557D02*
X006824Y004557D01*
X007080Y004836D02*
X007080Y007636D01*
X007040Y008044D02*
X007192Y008044D01*
X007192Y008203D02*
X006834Y008203D01*
X007192Y008361D02*
X006300Y008361D01*
X006300Y008520D02*
X007192Y008520D01*
X007192Y008678D02*
X006300Y008678D01*
X006300Y008837D02*
X007192Y008837D01*
X007192Y008995D02*
X006300Y008995D01*
X006300Y009154D02*
X007192Y009154D01*
X007192Y009312D02*
X006324Y009312D01*
X006482Y009471D02*
X007192Y009471D01*
X007192Y009629D02*
X006641Y009629D01*
X006799Y009788D02*
X007192Y009788D01*
X007192Y009946D02*
X006958Y009946D01*
X007107Y010105D02*
X007192Y010105D01*
X007192Y010263D02*
X007140Y010263D01*
X007140Y010422D02*
X007192Y010422D01*
X007192Y010580D02*
X007140Y010580D01*
X007140Y010739D02*
X007192Y010739D01*
X007192Y010897D02*
X007140Y010897D01*
X007140Y011056D02*
X007192Y011056D01*
X007192Y011214D02*
X007140Y011214D01*
X007140Y011373D02*
X007192Y011373D01*
X007192Y011531D02*
X007140Y011531D01*
X007140Y011690D02*
X007192Y011690D01*
X007192Y011848D02*
X007140Y011848D01*
X007140Y012007D02*
X007192Y012007D01*
X007192Y012165D02*
X007140Y012165D01*
X007140Y012324D02*
X007192Y012324D01*
X007192Y012482D02*
X007140Y012482D01*
X007140Y012641D02*
X007192Y012641D01*
X007192Y012799D02*
X007140Y012799D01*
X007140Y012958D02*
X007192Y012958D01*
X007192Y013116D02*
X007140Y013116D01*
X007140Y013275D02*
X007192Y013275D01*
X007192Y013433D02*
X007140Y013433D01*
X007140Y013592D02*
X007192Y013592D01*
X007192Y013750D02*
X007140Y013750D01*
X007140Y013909D02*
X007192Y013909D01*
X007192Y014067D02*
X007140Y014067D01*
X007140Y014226D02*
X007192Y014226D01*
X007192Y014384D02*
X007140Y014384D01*
X007140Y014543D02*
X007192Y014543D01*
X007192Y014701D02*
X007141Y014701D01*
X007093Y014860D02*
X007192Y014860D01*
X007192Y015018D02*
X006914Y015018D01*
X006728Y015177D02*
X007192Y015177D01*
X007192Y015335D02*
X006543Y015335D01*
X006357Y015494D02*
X007192Y015494D01*
X007192Y015652D02*
X006229Y015652D01*
X006229Y015811D02*
X007192Y015811D01*
X007192Y015969D02*
X006229Y015969D01*
X006229Y016128D02*
X007192Y016128D01*
X007192Y016286D02*
X006148Y016286D01*
X005749Y014949D02*
X005749Y014167D01*
X005880Y014036D01*
X005638Y013592D02*
X005122Y013592D01*
X005081Y013551D02*
X005365Y013835D01*
X005365Y014023D01*
X004894Y014023D01*
X004894Y014050D01*
X004866Y014050D01*
X004866Y014023D01*
X004395Y014023D01*
X004395Y013835D01*
X004679Y013551D01*
X004866Y013551D01*
X004866Y014023D01*
X004894Y014023D01*
X004894Y013551D01*
X005081Y013551D01*
X005169Y013433D02*
X005591Y013433D01*
X005432Y013275D02*
X005328Y013275D01*
X005365Y013116D02*
X005395Y013116D01*
X005395Y012958D02*
X005365Y012958D01*
X005329Y012799D02*
X005431Y012799D01*
X005589Y012641D02*
X005171Y012641D01*
X005120Y012482D02*
X005640Y012482D01*
X005481Y012324D02*
X005279Y012324D01*
X005365Y012165D02*
X005395Y012165D01*
X005395Y012007D02*
X005365Y012007D01*
X005365Y011848D02*
X005395Y011848D01*
X005540Y011690D02*
X005220Y011690D01*
X005056Y011373D02*
X006049Y011373D01*
X006080Y011036D02*
X006480Y011436D01*
X006480Y012436D01*
X005880Y013036D01*
X006122Y013592D02*
X006620Y013592D01*
X006620Y013750D02*
X006280Y013750D01*
X006365Y013909D02*
X006620Y013909D01*
X006620Y014067D02*
X006365Y014067D01*
X006365Y014226D02*
X006620Y014226D01*
X006620Y014384D02*
X006218Y014384D01*
X006205Y014543D02*
X006620Y014543D01*
X006485Y014701D02*
X006205Y014701D01*
X006205Y014860D02*
X006299Y014860D01*
X006169Y013433D02*
X006620Y013433D01*
X006620Y013275D02*
X006328Y013275D01*
X006365Y013116D02*
X006620Y013116D01*
X006620Y012958D02*
X006365Y012958D01*
X006485Y012799D02*
X006620Y012799D01*
X006220Y011690D02*
X006220Y011690D01*
X006207Y011531D02*
X004320Y011531D01*
X004433Y011373D02*
X004704Y011373D01*
X004544Y011214D02*
X004458Y011214D01*
X004415Y011056D02*
X004502Y011056D01*
X004528Y010897D02*
X004315Y010897D01*
X004080Y011036D02*
X004080Y011236D01*
X004080Y011036D02*
X004023Y010779D01*
X004023Y010426D01*
X003708Y010426D02*
X003708Y011808D01*
X002280Y012836D01*
X001680Y012836D01*
X001547Y012482D02*
X001540Y012482D01*
X001540Y012324D02*
X001717Y012324D01*
X001816Y012165D02*
X001540Y012165D01*
X001540Y012007D02*
X002242Y012007D01*
X002080Y012436D02*
X003393Y011523D01*
X003393Y010426D01*
X003133Y010897D02*
X001540Y010897D01*
X001540Y010739D02*
X002788Y010739D01*
X002788Y010580D02*
X001540Y010580D01*
X001540Y010422D02*
X002788Y010422D01*
X002788Y010263D02*
X001540Y010263D01*
X001540Y010105D02*
X002142Y010105D01*
X002060Y009946D02*
X001540Y009946D01*
X001540Y009788D02*
X002060Y009788D01*
X002060Y009629D02*
X001540Y009629D01*
X001540Y009471D02*
X002060Y009471D01*
X002060Y009312D02*
X001540Y009312D01*
X001540Y009154D02*
X002060Y009154D01*
X002060Y008634D02*
X001645Y008634D01*
X001540Y008528D01*
X001540Y008524D01*
X002060Y008524D01*
X002060Y008579D01*
X002060Y008634D01*
X002490Y009208D02*
X002490Y009208D01*
X002490Y009233D01*
X002490Y009233D01*
X003133Y011056D02*
X001540Y011056D01*
X001540Y011214D02*
X003133Y011214D01*
X003133Y011373D02*
X001540Y011373D01*
X001540Y011531D02*
X002926Y011531D01*
X002698Y011690D02*
X001540Y011690D01*
X001540Y011848D02*
X002470Y011848D01*
X002776Y012799D02*
X003949Y012799D01*
X003791Y012958D02*
X002556Y012958D01*
X002465Y013116D02*
X001935Y013116D01*
X002319Y013965D02*
X002240Y014044D01*
X002240Y014181D01*
X002328Y014269D01*
X002377Y014387D01*
X002377Y014585D01*
X002328Y014703D01*
X002237Y014794D01*
X002131Y014838D01*
X002149Y014842D01*
X002207Y014866D01*
X002260Y014901D01*
X002305Y014946D01*
X002340Y014998D01*
X002364Y015057D01*
X002377Y015119D01*
X002377Y015178D01*
X001988Y015178D01*
X001988Y015194D01*
X002377Y015194D01*
X002377Y015253D01*
X002364Y015315D01*
X002346Y015360D01*
X002536Y015360D01*
X002536Y015768D01*
X002671Y015768D01*
X002671Y015542D01*
X002655Y015526D01*
X002620Y015474D01*
X002596Y015415D01*
X002583Y015353D01*
X002583Y015294D01*
X002972Y015294D01*
X002972Y015278D01*
X002583Y015278D01*
X002583Y015219D01*
X002596Y015157D01*
X002620Y015098D01*
X002655Y015046D01*
X002700Y015001D01*
X002753Y014966D01*
X002811Y014942D01*
X002829Y014938D01*
X002723Y014894D01*
X002632Y014803D01*
X002583Y014685D01*
X002583Y014487D01*
X002590Y014470D01*
X002378Y014152D01*
X002360Y014133D01*
X002350Y014109D01*
X002335Y014087D01*
X002330Y014062D01*
X002320Y014038D01*
X002320Y014011D01*
X002315Y013986D01*
X002319Y013965D01*
X002331Y014067D02*
X002240Y014067D01*
X002285Y014226D02*
X002427Y014226D01*
X002375Y014384D02*
X002533Y014384D01*
X002583Y014543D02*
X002377Y014543D01*
X002329Y014701D02*
X002590Y014701D01*
X002688Y014860D02*
X002192Y014860D01*
X002348Y015018D02*
X002683Y015018D01*
X002592Y015177D02*
X002377Y015177D01*
X002356Y015335D02*
X002583Y015335D01*
X002536Y015494D02*
X002633Y015494D01*
X002671Y015652D02*
X002536Y015652D01*
X002536Y015811D02*
X001540Y015811D01*
X001540Y015969D02*
X001931Y015969D01*
X001931Y016128D02*
X001540Y016128D01*
X001540Y016286D02*
X002021Y016286D01*
X001931Y015652D02*
X001540Y015652D01*
X001540Y015494D02*
X001734Y015494D01*
X001604Y015335D02*
X001540Y015335D01*
X001540Y015177D02*
X001583Y015177D01*
X001612Y015018D02*
X001540Y015018D01*
X001624Y014860D02*
X001768Y014860D01*
X001540Y016445D02*
X007192Y016445D01*
X007192Y016603D02*
X001540Y016603D01*
X001540Y016762D02*
X002689Y016762D01*
X002712Y016738D02*
X002961Y016635D01*
X003230Y016635D01*
X003479Y016738D01*
X003670Y016928D01*
X003773Y017177D01*
X003773Y017446D01*
X003670Y017695D01*
X003479Y017885D01*
X003230Y017988D01*
X002961Y017988D01*
X002712Y017885D01*
X002522Y017695D01*
X002419Y017446D01*
X002419Y017177D01*
X002522Y016928D01*
X002712Y016738D01*
X002671Y016311D02*
X002671Y015903D01*
X003276Y015903D01*
X003276Y016154D01*
X003263Y016200D01*
X003240Y016241D01*
X003206Y016275D01*
X003165Y016298D01*
X003119Y016311D01*
X002671Y016311D01*
X002671Y016286D02*
X002536Y016286D01*
X002536Y016128D02*
X002671Y016128D01*
X002671Y015969D02*
X002536Y015969D01*
X002671Y015811D02*
X004884Y015811D01*
X004884Y015969D02*
X003276Y015969D01*
X003276Y016128D02*
X004884Y016128D01*
X004965Y016286D02*
X003186Y016286D01*
X003276Y015652D02*
X004884Y015652D01*
X004884Y015494D02*
X003327Y015494D01*
X003377Y015335D02*
X003955Y015335D01*
X003955Y015177D02*
X003368Y015177D01*
X003277Y015018D02*
X003955Y015018D01*
X003954Y014860D02*
X003272Y014860D01*
X003052Y014226D02*
X004395Y014226D01*
X004395Y014067D02*
X002946Y014067D01*
X002901Y013750D02*
X004480Y013750D01*
X004395Y013909D02*
X002841Y013909D01*
X002580Y013536D02*
X002680Y013436D01*
X002880Y013236D01*
X003880Y013236D01*
X004880Y012236D01*
X004880Y012036D01*
X004540Y011690D02*
X003968Y011690D01*
X003968Y011848D02*
X004395Y011848D01*
X004395Y012007D02*
X003877Y012007D01*
X003657Y012165D02*
X004395Y012165D01*
X004425Y012324D02*
X003437Y012324D01*
X003217Y012482D02*
X004266Y012482D01*
X004108Y012641D02*
X002997Y012641D01*
X002680Y013436D02*
X002480Y013436D01*
X002580Y013536D02*
X002580Y013986D01*
X002980Y014586D01*
X004048Y014586D01*
X004411Y014949D01*
X004542Y014384D02*
X004214Y014384D01*
X004051Y013433D02*
X004591Y013433D01*
X004638Y013592D02*
X003025Y013592D01*
X004209Y013275D02*
X004432Y013275D01*
X004395Y013116D02*
X004368Y013116D01*
X004866Y013592D02*
X004894Y013592D01*
X004894Y013750D02*
X004866Y013750D01*
X004866Y013909D02*
X004894Y013909D01*
X004894Y014050D02*
X005365Y014050D01*
X005365Y014237D01*
X005081Y014521D01*
X004894Y014521D01*
X004894Y014050D01*
X004894Y014067D02*
X004866Y014067D01*
X004866Y014226D02*
X004894Y014226D01*
X004894Y014384D02*
X004866Y014384D01*
X004866Y014521D02*
X004866Y014521D01*
X004866Y014543D02*
X005294Y014543D01*
X005294Y014701D02*
X004866Y014701D01*
X004866Y014860D02*
X005294Y014860D01*
X005294Y015018D02*
X004866Y015018D01*
X004866Y015177D02*
X005294Y015177D01*
X005294Y015335D02*
X004866Y015335D01*
X005218Y014384D02*
X005489Y014384D01*
X005395Y014226D02*
X005365Y014226D01*
X005365Y014067D02*
X005395Y014067D01*
X005395Y013909D02*
X005365Y013909D01*
X005280Y013750D02*
X005480Y013750D01*
X004880Y011036D02*
X006080Y011036D01*
X006820Y006142D02*
X004709Y006142D01*
X004828Y005984D02*
X006820Y005984D01*
X007192Y004399D02*
X004788Y004399D01*
X004810Y004082D02*
X004810Y004082D01*
X004810Y003923D02*
X004810Y003923D01*
X004810Y003765D02*
X004810Y003765D01*
X004810Y003606D02*
X004810Y003606D01*
X005088Y003606D02*
X005339Y003606D01*
X005339Y003448D02*
X005088Y003448D01*
X005088Y003289D02*
X005339Y003289D01*
X005339Y003131D02*
X005088Y003131D01*
X005264Y002972D02*
X005339Y002972D01*
X005644Y002655D02*
X007192Y002655D01*
X007192Y002497D02*
X005710Y002497D01*
X005723Y002338D02*
X007192Y002338D01*
X007192Y002180D02*
X005717Y002180D01*
X005651Y002021D02*
X007192Y002021D01*
X007192Y002814D02*
X006486Y002814D01*
X006486Y002972D02*
X007192Y002972D01*
X007192Y003131D02*
X006486Y003131D01*
X006486Y003289D02*
X007192Y003289D01*
X007192Y003448D02*
X006486Y003448D01*
X006486Y003606D02*
X007192Y003606D01*
X007192Y003765D02*
X006486Y003765D01*
X006424Y003923D02*
X007192Y003923D01*
X007192Y004082D02*
X005064Y004082D01*
X005088Y003923D02*
X005401Y003923D01*
X005339Y003765D02*
X005088Y003765D01*
X004652Y004240D02*
X007192Y004240D01*
X006839Y001863D02*
X005536Y001863D01*
X006478Y001704D02*
X006597Y001704D01*
X004280Y004236D02*
X004552Y004508D01*
X004552Y004770D01*
X004552Y005302D02*
X004552Y005764D01*
X004480Y005836D01*
X004251Y006142D02*
X003909Y006142D01*
X004028Y005984D02*
X004132Y005984D01*
X004102Y005825D02*
X004058Y005825D01*
X004019Y005667D02*
X004141Y005667D01*
X003680Y005836D02*
X003608Y005764D01*
X003608Y005302D01*
X004280Y004236D02*
X004280Y003636D01*
X004180Y003536D01*
X002892Y006618D02*
X002866Y006618D01*
X002788Y006776D02*
X002708Y006776D01*
X002788Y006935D02*
X002549Y006935D01*
X002391Y007093D02*
X002788Y007093D01*
X002788Y007252D02*
X002476Y007252D01*
X001936Y003923D02*
X001160Y003923D01*
X001160Y003765D02*
X001874Y003765D01*
X001874Y003606D02*
X001160Y003606D01*
X001160Y003448D02*
X001874Y003448D01*
X001874Y003289D02*
X001160Y003289D01*
X001160Y003131D02*
X001874Y003131D01*
X001874Y002972D02*
X001160Y002972D01*
X001160Y002814D02*
X001874Y002814D01*
X001521Y001863D02*
X002824Y001863D01*
X001882Y001704D02*
X001763Y001704D01*
X003503Y016762D02*
X004657Y016762D01*
X004499Y016920D02*
X003661Y016920D01*
X003732Y017079D02*
X004428Y017079D01*
X004387Y017237D02*
X003773Y017237D01*
X003773Y017396D02*
X004387Y017396D01*
X004432Y017554D02*
X003728Y017554D01*
X003652Y017713D02*
X004508Y017713D01*
X004666Y017871D02*
X003494Y017871D01*
X003247Y018822D02*
X004913Y018822D01*
X004884Y018981D02*
X003276Y018981D01*
X003276Y019139D02*
X004884Y019139D01*
X004884Y019298D02*
X003276Y019298D01*
X003276Y019456D02*
X004884Y019456D01*
X002698Y017871D02*
X001540Y017871D01*
X001540Y017713D02*
X002539Y017713D01*
X002464Y017554D02*
X001540Y017554D01*
X001540Y017396D02*
X002419Y017396D01*
X002419Y017237D02*
X001540Y017237D01*
X001540Y017079D02*
X002460Y017079D01*
X002530Y016920D02*
X001540Y016920D01*
X001681Y018030D02*
X007192Y018030D01*
X007192Y018188D02*
X001840Y018188D01*
X001998Y018347D02*
X007192Y018347D01*
X007192Y018505D02*
X002157Y018505D01*
D22*
X003680Y014236D03*
X004080Y016836D03*
X002680Y013436D03*
X002080Y012436D03*
X001680Y012836D03*
X001880Y009836D03*
X001280Y008036D03*
X002280Y005036D03*
X002880Y004836D03*
X003680Y005836D03*
X004480Y005836D03*
X004080Y008636D03*
X004880Y011036D03*
X004080Y011236D03*
X006280Y006336D03*
X007080Y004836D03*
X006480Y002136D03*
X001680Y002236D03*
M02*
