G75*
G70*
%OFA0B0*%
%FSLAX24Y24*%
%IPPOS*%
%LPD*%
%AMOC8*
5,1,8,0,0,1.08239X$1,22.5*
%
%ADD10C,0.0000*%
%ADD11C,0.0080*%
%ADD12R,0.0620X0.0240*%
%ADD13C,0.0060*%
%ADD14C,0.0087*%
D10*
X000680Y000630D02*
X000680Y020044D01*
X007672Y020044D01*
X007672Y000630D01*
X000680Y000630D01*
X001083Y001230D02*
X001085Y001257D01*
X001091Y001284D01*
X001100Y001310D01*
X001113Y001334D01*
X001129Y001357D01*
X001148Y001376D01*
X001170Y001393D01*
X001194Y001407D01*
X001219Y001417D01*
X001246Y001424D01*
X001273Y001427D01*
X001301Y001426D01*
X001328Y001421D01*
X001354Y001413D01*
X001378Y001401D01*
X001401Y001385D01*
X001422Y001367D01*
X001439Y001346D01*
X001454Y001322D01*
X001465Y001297D01*
X001473Y001271D01*
X001477Y001244D01*
X001477Y001216D01*
X001473Y001189D01*
X001465Y001163D01*
X001454Y001138D01*
X001439Y001114D01*
X001422Y001093D01*
X001401Y001075D01*
X001379Y001059D01*
X001354Y001047D01*
X001328Y001039D01*
X001301Y001034D01*
X001273Y001033D01*
X001246Y001036D01*
X001219Y001043D01*
X001194Y001053D01*
X001170Y001067D01*
X001148Y001084D01*
X001129Y001103D01*
X001113Y001126D01*
X001100Y001150D01*
X001091Y001176D01*
X001085Y001203D01*
X001083Y001230D01*
X003117Y002330D02*
X003119Y002357D01*
X003125Y002384D01*
X003134Y002410D01*
X003147Y002434D01*
X003163Y002457D01*
X003182Y002476D01*
X003204Y002493D01*
X003228Y002507D01*
X003253Y002517D01*
X003280Y002524D01*
X003307Y002527D01*
X003335Y002526D01*
X003362Y002521D01*
X003388Y002513D01*
X003412Y002501D01*
X003435Y002485D01*
X003456Y002467D01*
X003473Y002446D01*
X003488Y002422D01*
X003499Y002397D01*
X003507Y002371D01*
X003511Y002344D01*
X003511Y002316D01*
X003507Y002289D01*
X003499Y002263D01*
X003488Y002238D01*
X003473Y002214D01*
X003456Y002193D01*
X003435Y002175D01*
X003413Y002159D01*
X003388Y002147D01*
X003362Y002139D01*
X003335Y002134D01*
X003307Y002133D01*
X003280Y002136D01*
X003253Y002143D01*
X003228Y002153D01*
X003204Y002167D01*
X003182Y002184D01*
X003163Y002203D01*
X003147Y002226D01*
X003134Y002250D01*
X003125Y002276D01*
X003119Y002303D01*
X003117Y002330D01*
X004849Y002330D02*
X004851Y002357D01*
X004857Y002384D01*
X004866Y002410D01*
X004879Y002434D01*
X004895Y002457D01*
X004914Y002476D01*
X004936Y002493D01*
X004960Y002507D01*
X004985Y002517D01*
X005012Y002524D01*
X005039Y002527D01*
X005067Y002526D01*
X005094Y002521D01*
X005120Y002513D01*
X005144Y002501D01*
X005167Y002485D01*
X005188Y002467D01*
X005205Y002446D01*
X005220Y002422D01*
X005231Y002397D01*
X005239Y002371D01*
X005243Y002344D01*
X005243Y002316D01*
X005239Y002289D01*
X005231Y002263D01*
X005220Y002238D01*
X005205Y002214D01*
X005188Y002193D01*
X005167Y002175D01*
X005145Y002159D01*
X005120Y002147D01*
X005094Y002139D01*
X005067Y002134D01*
X005039Y002133D01*
X005012Y002136D01*
X004985Y002143D01*
X004960Y002153D01*
X004936Y002167D01*
X004914Y002184D01*
X004895Y002203D01*
X004879Y002226D01*
X004866Y002250D01*
X004857Y002276D01*
X004851Y002303D01*
X004849Y002330D01*
X006883Y001230D02*
X006885Y001257D01*
X006891Y001284D01*
X006900Y001310D01*
X006913Y001334D01*
X006929Y001357D01*
X006948Y001376D01*
X006970Y001393D01*
X006994Y001407D01*
X007019Y001417D01*
X007046Y001424D01*
X007073Y001427D01*
X007101Y001426D01*
X007128Y001421D01*
X007154Y001413D01*
X007178Y001401D01*
X007201Y001385D01*
X007222Y001367D01*
X007239Y001346D01*
X007254Y001322D01*
X007265Y001297D01*
X007273Y001271D01*
X007277Y001244D01*
X007277Y001216D01*
X007273Y001189D01*
X007265Y001163D01*
X007254Y001138D01*
X007239Y001114D01*
X007222Y001093D01*
X007201Y001075D01*
X007179Y001059D01*
X007154Y001047D01*
X007128Y001039D01*
X007101Y001034D01*
X007073Y001033D01*
X007046Y001036D01*
X007019Y001043D01*
X006994Y001053D01*
X006970Y001067D01*
X006948Y001084D01*
X006929Y001103D01*
X006913Y001126D01*
X006900Y001150D01*
X006891Y001176D01*
X006885Y001203D01*
X006883Y001230D01*
X004867Y017312D02*
X004869Y017339D01*
X004875Y017366D01*
X004884Y017392D01*
X004897Y017416D01*
X004913Y017439D01*
X004932Y017458D01*
X004954Y017475D01*
X004978Y017489D01*
X005003Y017499D01*
X005030Y017506D01*
X005057Y017509D01*
X005085Y017508D01*
X005112Y017503D01*
X005138Y017495D01*
X005162Y017483D01*
X005185Y017467D01*
X005206Y017449D01*
X005223Y017428D01*
X005238Y017404D01*
X005249Y017379D01*
X005257Y017353D01*
X005261Y017326D01*
X005261Y017298D01*
X005257Y017271D01*
X005249Y017245D01*
X005238Y017220D01*
X005223Y017196D01*
X005206Y017175D01*
X005185Y017157D01*
X005163Y017141D01*
X005138Y017129D01*
X005112Y017121D01*
X005085Y017116D01*
X005057Y017115D01*
X005030Y017118D01*
X005003Y017125D01*
X004978Y017135D01*
X004954Y017149D01*
X004932Y017166D01*
X004913Y017185D01*
X004897Y017208D01*
X004884Y017232D01*
X004875Y017258D01*
X004869Y017285D01*
X004867Y017312D01*
X002899Y017312D02*
X002901Y017339D01*
X002907Y017366D01*
X002916Y017392D01*
X002929Y017416D01*
X002945Y017439D01*
X002964Y017458D01*
X002986Y017475D01*
X003010Y017489D01*
X003035Y017499D01*
X003062Y017506D01*
X003089Y017509D01*
X003117Y017508D01*
X003144Y017503D01*
X003170Y017495D01*
X003194Y017483D01*
X003217Y017467D01*
X003238Y017449D01*
X003255Y017428D01*
X003270Y017404D01*
X003281Y017379D01*
X003289Y017353D01*
X003293Y017326D01*
X003293Y017298D01*
X003289Y017271D01*
X003281Y017245D01*
X003270Y017220D01*
X003255Y017196D01*
X003238Y017175D01*
X003217Y017157D01*
X003195Y017141D01*
X003170Y017129D01*
X003144Y017121D01*
X003117Y017116D01*
X003089Y017115D01*
X003062Y017118D01*
X003035Y017125D01*
X003010Y017135D01*
X002986Y017149D01*
X002964Y017166D01*
X002945Y017185D01*
X002929Y017208D01*
X002916Y017232D01*
X002907Y017258D01*
X002901Y017285D01*
X002899Y017312D01*
D11*
X006883Y012833D02*
X007277Y012833D01*
X007080Y012439D01*
X006883Y012833D01*
D12*
X007080Y012416D03*
D13*
X005660Y010016D02*
X002900Y010016D01*
X002900Y007396D01*
X003040Y007256D01*
X005660Y007256D01*
X005660Y010016D01*
X003059Y007556D02*
X003061Y007579D01*
X003067Y007602D01*
X003076Y007623D01*
X003089Y007643D01*
X003105Y007660D01*
X003123Y007674D01*
X003143Y007685D01*
X003165Y007693D01*
X003188Y007697D01*
X003212Y007697D01*
X003235Y007693D01*
X003257Y007685D01*
X003277Y007674D01*
X003295Y007660D01*
X003311Y007643D01*
X003324Y007623D01*
X003333Y007602D01*
X003339Y007579D01*
X003341Y007556D01*
X003339Y007533D01*
X003333Y007510D01*
X003324Y007489D01*
X003311Y007469D01*
X003295Y007452D01*
X003277Y007438D01*
X003257Y007427D01*
X003235Y007419D01*
X003212Y007415D01*
X003188Y007415D01*
X003165Y007419D01*
X003143Y007427D01*
X003123Y007438D01*
X003105Y007452D01*
X003089Y007469D01*
X003076Y007489D01*
X003067Y007510D01*
X003061Y007533D01*
X003059Y007556D01*
D14*
X002910Y006251D02*
X002910Y005621D01*
X001650Y005621D02*
X001650Y006251D01*
M02*
