G75*
G70*
%OFA0B0*%
%FSLAX24Y24*%
%IPPOS*%
%LPD*%
%AMOC8*
5,1,8,0,0,1.08239X$1,22.5*
%
%ADD10C,0.0283*%
%ADD11OC8,0.0610*%
%ADD12R,0.0256X0.0197*%
%ADD13R,0.0709X0.0551*%
%ADD14R,0.0500X0.0220*%
%ADD15R,0.0220X0.0500*%
%ADD16R,0.0276X0.0787*%
%ADD17R,0.0197X0.0256*%
%ADD18C,0.0160*%
%ADD19C,0.0396*%
D10*
X002005Y006950D02*
X002005Y007022D01*
X002155Y007022D01*
X002155Y006950D01*
X002005Y006950D01*
X002005Y007650D02*
X002005Y007722D01*
X002155Y007722D01*
X002155Y007650D01*
X002005Y007650D01*
X002905Y011550D02*
X003055Y011550D01*
X002905Y011550D02*
X002905Y011622D01*
X003055Y011622D01*
X003055Y011550D01*
X003055Y012250D02*
X002905Y012250D01*
X002905Y012322D01*
X003055Y012322D01*
X003055Y012250D01*
X005205Y006022D02*
X005355Y006022D01*
X005355Y005950D01*
X005205Y005950D01*
X005205Y006022D01*
X005205Y005322D02*
X005355Y005322D01*
X005355Y005250D01*
X005205Y005250D01*
X005205Y005322D01*
D11*
X004880Y012036D03*
X004880Y013036D03*
X004880Y014036D03*
X005880Y014036D03*
X005880Y013036D03*
X005880Y012036D03*
D12*
X003646Y012864D03*
X003646Y013179D03*
X003646Y013494D03*
X003646Y013808D03*
X003114Y013808D03*
X003114Y013494D03*
X003114Y013179D03*
X003114Y012864D03*
D13*
X007080Y013305D03*
X007080Y011967D03*
D14*
X005970Y009738D03*
X005970Y009423D03*
X005970Y009108D03*
X005970Y008794D03*
X005970Y008479D03*
X005970Y008164D03*
X005970Y007849D03*
X005970Y007534D03*
X002590Y007534D03*
X002590Y007849D03*
X002590Y008164D03*
X002590Y008479D03*
X002590Y008794D03*
X002590Y009108D03*
X002590Y009423D03*
X002590Y009738D03*
D15*
X003178Y010326D03*
X003493Y010326D03*
X003808Y010326D03*
X004123Y010326D03*
X004437Y010326D03*
X004752Y010326D03*
X005067Y010326D03*
X005382Y010326D03*
X005382Y006946D03*
X005067Y006946D03*
X004752Y006946D03*
X004437Y006946D03*
X004123Y006946D03*
X003808Y006946D03*
X003493Y006946D03*
X003178Y006946D03*
D16*
X002674Y005936D03*
X002280Y005936D03*
X001886Y005936D03*
D17*
X002037Y011370D03*
X002037Y011902D03*
X001723Y011902D03*
X001723Y011370D03*
X001408Y011370D03*
X001408Y011902D03*
X002352Y011902D03*
X002352Y011370D03*
D18*
X001160Y004788D02*
X001160Y001907D01*
X001415Y001907D01*
X001663Y001804D01*
X001854Y001613D01*
X001957Y001364D01*
X001957Y001110D01*
X006403Y001110D01*
X006403Y001364D01*
X006506Y001613D01*
X006697Y001804D01*
X006945Y001907D01*
X007192Y001907D01*
X007192Y004473D01*
X007155Y004458D01*
X007070Y004458D01*
X006900Y004289D01*
X006827Y004216D01*
X006732Y004176D01*
X003228Y004176D01*
X003133Y004216D01*
X002890Y004458D01*
X002870Y004458D01*
X002627Y004216D01*
X002532Y004176D01*
X001828Y004176D01*
X001733Y004216D01*
X001660Y004289D01*
X001160Y004788D01*
X001160Y004716D02*
X001233Y004716D01*
X001160Y004557D02*
X001391Y004557D01*
X001550Y004399D02*
X001160Y004399D01*
X001160Y004240D02*
X001708Y004240D01*
X001880Y004436D02*
X002480Y004436D01*
X002880Y004836D01*
X003280Y004436D01*
X006680Y004436D01*
X007080Y004836D01*
X007080Y011967D01*
X006480Y011236D02*
X006680Y011036D01*
X006680Y007836D01*
X006378Y007534D01*
X005970Y007534D01*
X005672Y007244D02*
X005672Y006621D01*
X005567Y006516D01*
X005118Y006516D01*
X005291Y006343D01*
X005419Y006343D01*
X005537Y006294D01*
X005628Y006203D01*
X005677Y006085D01*
X005677Y005887D01*
X005628Y005769D01*
X005537Y005678D01*
X005431Y005634D01*
X005449Y005631D01*
X005507Y005606D01*
X005560Y005571D01*
X005605Y005526D01*
X005640Y005474D01*
X005664Y005415D01*
X005677Y005353D01*
X005677Y005294D01*
X005288Y005294D01*
X005288Y005278D01*
X005288Y004929D01*
X005387Y004929D01*
X005449Y004942D01*
X005507Y004966D01*
X005560Y005001D01*
X005605Y005046D01*
X005640Y005098D01*
X005664Y005157D01*
X005677Y005219D01*
X005677Y005278D01*
X005288Y005278D01*
X005272Y005278D01*
X005272Y004929D01*
X005173Y004929D01*
X005111Y004942D01*
X005053Y004966D01*
X005000Y005001D01*
X004955Y005046D01*
X004920Y005098D01*
X004896Y005157D01*
X004883Y005219D01*
X004883Y005278D01*
X005272Y005278D01*
X005272Y005294D01*
X004883Y005294D01*
X004883Y005353D01*
X004896Y005415D01*
X004920Y005474D01*
X004955Y005526D01*
X005000Y005571D01*
X005053Y005606D01*
X005111Y005631D01*
X005129Y005634D01*
X005023Y005678D01*
X004932Y005769D01*
X004883Y005887D01*
X004883Y006015D01*
X004532Y006366D01*
X004492Y006462D01*
X004492Y006516D01*
X004437Y006516D01*
X004437Y006946D01*
X004437Y006946D01*
X004437Y007376D01*
X003020Y007376D01*
X003020Y007664D01*
X003020Y008164D01*
X003020Y009896D01*
X005540Y009896D01*
X005540Y007376D01*
X004571Y007376D01*
X004437Y007376D01*
X004437Y006946D01*
X004437Y006946D01*
X004437Y006516D01*
X004383Y006516D01*
X004383Y006470D01*
X004546Y006214D01*
X004555Y006214D01*
X004694Y006157D01*
X004801Y006050D01*
X004858Y005911D01*
X004858Y005761D01*
X004801Y005622D01*
X004694Y005515D01*
X004555Y005458D01*
X004405Y005458D01*
X004266Y005515D01*
X004159Y005622D01*
X004102Y005761D01*
X004102Y005911D01*
X004110Y005931D01*
X004039Y006042D01*
X004022Y005998D01*
X004058Y005911D01*
X004058Y005761D01*
X004001Y005622D01*
X003894Y005515D01*
X003755Y005458D01*
X003605Y005458D01*
X003466Y005515D01*
X003438Y005544D01*
X003438Y005366D01*
X003442Y005347D01*
X003438Y005315D01*
X003438Y005282D01*
X003430Y005264D01*
X003427Y005245D01*
X003411Y005217D01*
X003398Y005186D01*
X003384Y005173D01*
X003246Y004941D01*
X003258Y004911D01*
X003258Y004826D01*
X003388Y004696D01*
X006572Y004696D01*
X006702Y004826D01*
X006702Y004911D01*
X006759Y005050D01*
X006820Y005111D01*
X006820Y007608D01*
X006525Y007313D01*
X006429Y007274D01*
X006325Y007274D01*
X006295Y007244D01*
X005672Y007244D01*
X005672Y007093D02*
X006820Y007093D01*
X006820Y006935D02*
X005672Y006935D01*
X005672Y006776D02*
X006820Y006776D01*
X006820Y006618D02*
X005668Y006618D01*
X005521Y006301D02*
X006820Y006301D01*
X006820Y006459D02*
X005175Y006459D01*
X004752Y006514D02*
X005280Y005986D01*
X005509Y005667D02*
X006820Y005667D01*
X006820Y005825D02*
X005651Y005825D01*
X005677Y005984D02*
X006820Y005984D01*
X006820Y006142D02*
X005653Y006142D01*
X005617Y005508D02*
X006820Y005508D01*
X006820Y005350D02*
X005677Y005350D01*
X005671Y005191D02*
X006820Y005191D01*
X006752Y005033D02*
X005592Y005033D01*
X005288Y005033D02*
X005272Y005033D01*
X005272Y005191D02*
X005288Y005191D01*
X005051Y005667D02*
X004819Y005667D01*
X004858Y005825D02*
X004909Y005825D01*
X004883Y005984D02*
X004828Y005984D01*
X004756Y006142D02*
X004709Y006142D01*
X004752Y006514D02*
X004752Y006946D01*
X004494Y006459D02*
X004389Y006459D01*
X004437Y006618D02*
X004437Y006618D01*
X004437Y006776D02*
X004437Y006776D01*
X004437Y006935D02*
X004437Y006935D01*
X004437Y007093D02*
X004437Y007093D01*
X004437Y007252D02*
X004437Y007252D01*
X004123Y006946D02*
X004123Y006394D01*
X004480Y005836D01*
X004676Y005508D02*
X004943Y005508D01*
X004883Y005350D02*
X003442Y005350D01*
X003438Y005508D02*
X003484Y005508D01*
X003400Y005191D02*
X004889Y005191D01*
X004968Y005033D02*
X003300Y005033D01*
X003258Y004874D02*
X006702Y004874D01*
X006592Y004716D02*
X003368Y004716D01*
X002880Y004836D02*
X003178Y005334D01*
X003178Y006946D01*
X003493Y006946D01*
X003808Y006946D02*
X003808Y006164D01*
X003680Y005836D01*
X003876Y005508D02*
X004284Y005508D01*
X004141Y005667D02*
X004019Y005667D01*
X004058Y005825D02*
X004102Y005825D01*
X004077Y005984D02*
X004028Y005984D01*
X004491Y006301D02*
X004598Y006301D01*
X005540Y007410D02*
X003020Y007410D01*
X003020Y007569D02*
X005540Y007569D01*
X005540Y007727D02*
X003020Y007727D01*
X003020Y007886D02*
X005540Y007886D01*
X005540Y008044D02*
X003020Y008044D01*
X003020Y008164D02*
X002590Y008164D01*
X002590Y008164D01*
X002160Y008164D01*
X002160Y008219D01*
X002003Y008219D01*
X001658Y007981D01*
X001658Y007961D01*
X001601Y007822D01*
X001540Y007761D01*
X001540Y007514D01*
X001683Y007657D01*
X001683Y007785D01*
X001732Y007903D01*
X001823Y007994D01*
X001941Y008043D01*
X002119Y008043D01*
X002133Y008056D01*
X002160Y008068D01*
X002160Y008164D01*
X002590Y008164D01*
X003020Y008164D01*
X003020Y008203D02*
X005540Y008203D01*
X005540Y008361D02*
X003020Y008361D01*
X003020Y008520D02*
X005540Y008520D01*
X005540Y008678D02*
X003020Y008678D01*
X003020Y008837D02*
X005540Y008837D01*
X005540Y008995D02*
X003020Y008995D01*
X003020Y009154D02*
X005540Y009154D01*
X005540Y009312D02*
X003020Y009312D01*
X003020Y009471D02*
X005540Y009471D01*
X005540Y009629D02*
X003020Y009629D01*
X003020Y009788D02*
X005540Y009788D01*
X005382Y010326D02*
X005382Y011134D01*
X005080Y011436D01*
X004680Y011436D01*
X004280Y011836D01*
X004280Y012436D01*
X004880Y013036D01*
X004763Y012551D02*
X005081Y012551D01*
X005365Y012835D01*
X005365Y013237D01*
X005081Y013521D01*
X004679Y013521D01*
X004395Y013237D01*
X004395Y012919D01*
X004060Y012583D01*
X004020Y012488D01*
X004020Y012194D01*
X003720Y012401D01*
X003723Y012404D01*
X003729Y012418D01*
X003740Y012430D01*
X003751Y012465D01*
X003805Y012585D01*
X003848Y012585D01*
X003954Y012691D01*
X003954Y012951D01*
X003970Y012958D01*
X004227Y013216D01*
X004300Y013289D01*
X004340Y013384D01*
X004340Y014328D01*
X004388Y014376D01*
X004534Y014376D01*
X004395Y014237D01*
X004395Y014050D01*
X004866Y014050D01*
X004866Y014023D01*
X004395Y014023D01*
X004395Y013835D01*
X004679Y013551D01*
X004866Y013551D01*
X004866Y014023D01*
X004894Y014023D01*
X004894Y014050D01*
X005365Y014050D01*
X005365Y014183D01*
X005395Y014153D01*
X005395Y013835D01*
X005679Y013551D01*
X005997Y013551D01*
X006027Y013521D01*
X005679Y013521D01*
X005395Y013237D01*
X005395Y012835D01*
X005679Y012551D01*
X006081Y012551D01*
X006220Y012690D01*
X006220Y012382D01*
X006081Y012521D01*
X005679Y012521D01*
X005395Y012237D01*
X005395Y011835D01*
X005620Y011610D01*
X005620Y011239D01*
X005603Y011281D01*
X005300Y011583D01*
X005227Y011656D01*
X005198Y011668D01*
X005365Y011835D01*
X005365Y012237D01*
X005081Y012521D01*
X004733Y012521D01*
X004763Y012551D01*
X004395Y012958D02*
X003968Y012958D01*
X003954Y012799D02*
X004275Y012799D01*
X004117Y012641D02*
X003904Y012641D01*
X004020Y012482D02*
X003758Y012482D01*
X003833Y012324D02*
X004020Y012324D01*
X004080Y011836D02*
X004080Y011236D01*
X004280Y010836D02*
X003730Y010836D01*
X002980Y011586D01*
X002980Y011136D01*
X002880Y011036D01*
X002687Y011036D01*
X002352Y011370D01*
X002037Y011079D02*
X002280Y010836D01*
X003080Y010836D01*
X003237Y010679D01*
X003237Y010386D01*
X003178Y010326D01*
X002590Y009738D02*
X002492Y009836D01*
X002480Y009836D01*
X002480Y010236D01*
X001723Y010879D01*
X001723Y011370D01*
X001463Y011062D02*
X001463Y010919D01*
X001459Y010909D01*
X001463Y010868D01*
X001463Y010827D01*
X001467Y010817D01*
X001468Y010806D01*
X001486Y010769D01*
X001502Y010731D01*
X001510Y010723D01*
X001515Y010714D01*
X001546Y010687D01*
X001575Y010658D01*
X001585Y010654D01*
X002220Y010116D01*
X002220Y009983D01*
X002160Y009923D01*
X002160Y008739D01*
X001946Y008739D01*
X001919Y008744D01*
X001895Y008739D01*
X001871Y008739D01*
X001845Y008728D01*
X001818Y008722D01*
X001798Y008708D01*
X001775Y008699D01*
X001755Y008679D01*
X001365Y008410D01*
X001355Y008414D01*
X001205Y008414D01*
X001160Y008396D01*
X001160Y011137D01*
X001235Y011062D01*
X001463Y011062D01*
X001463Y011056D02*
X001160Y011056D01*
X001160Y010897D02*
X001460Y010897D01*
X001499Y010739D02*
X001160Y010739D01*
X001160Y010580D02*
X001672Y010580D01*
X001859Y010422D02*
X001160Y010422D01*
X001160Y010263D02*
X002046Y010263D01*
X002220Y010105D02*
X001160Y010105D01*
X001160Y009946D02*
X002183Y009946D01*
X002160Y009788D02*
X001160Y009788D01*
X001160Y009629D02*
X002160Y009629D01*
X002160Y009471D02*
X001160Y009471D01*
X001160Y009312D02*
X002160Y009312D01*
X002160Y009154D02*
X001160Y009154D01*
X001160Y008995D02*
X002160Y008995D01*
X002160Y008837D02*
X001160Y008837D01*
X001160Y008678D02*
X001754Y008678D01*
X001923Y008479D02*
X001280Y008036D01*
X001280Y005036D01*
X001880Y004436D01*
X001988Y004696D02*
X001540Y005144D01*
X001540Y006208D01*
X001569Y006180D01*
X001569Y005468D01*
X001674Y005362D01*
X002099Y005362D01*
X002103Y005367D01*
X002119Y005362D01*
X002280Y005362D01*
X002441Y005362D01*
X002457Y005367D01*
X002461Y005362D01*
X002886Y005362D01*
X002900Y005377D01*
X002803Y005213D01*
X002666Y005157D01*
X002559Y005050D01*
X002502Y004911D01*
X002502Y004826D01*
X002372Y004696D01*
X001988Y004696D01*
X001968Y004716D02*
X002392Y004716D01*
X002502Y004874D02*
X001810Y004874D01*
X001651Y005033D02*
X002552Y005033D01*
X002749Y005191D02*
X001540Y005191D01*
X001540Y005350D02*
X002884Y005350D01*
X002674Y005936D02*
X002680Y005942D01*
X002680Y006436D01*
X002130Y006986D01*
X002080Y006986D01*
X002130Y007036D01*
X002280Y007036D01*
X002590Y007346D01*
X002590Y007534D01*
X002577Y007836D02*
X002590Y007849D01*
X002577Y007836D02*
X002280Y007836D01*
X002130Y007686D01*
X002080Y007686D01*
X001680Y007286D01*
X001680Y006436D01*
X001930Y006186D01*
X001930Y006180D01*
X001886Y005936D01*
X001569Y005984D02*
X001540Y005984D01*
X001540Y006142D02*
X001569Y006142D01*
X001569Y005825D02*
X001540Y005825D01*
X001540Y005667D02*
X001569Y005667D01*
X001569Y005508D02*
X001540Y005508D01*
X001160Y004082D02*
X007192Y004082D01*
X007192Y004240D02*
X006852Y004240D01*
X007010Y004399D02*
X007192Y004399D01*
X007192Y003923D02*
X001160Y003923D01*
X001160Y003765D02*
X007192Y003765D01*
X007192Y003606D02*
X001160Y003606D01*
X001160Y003448D02*
X007192Y003448D01*
X007192Y003289D02*
X001160Y003289D01*
X001160Y003131D02*
X007192Y003131D01*
X007192Y002972D02*
X005264Y002972D01*
X005181Y003007D02*
X004912Y003007D01*
X004663Y002904D01*
X004472Y002713D01*
X004369Y002464D01*
X004369Y002195D01*
X004472Y001946D01*
X004663Y001756D01*
X004912Y001653D01*
X005181Y001653D01*
X005430Y001756D01*
X005620Y001946D01*
X005723Y002195D01*
X005723Y002464D01*
X005620Y002713D01*
X005430Y002904D01*
X005181Y003007D01*
X005520Y002814D02*
X007192Y002814D01*
X007192Y002655D02*
X005644Y002655D01*
X005710Y002497D02*
X007192Y002497D01*
X007192Y002338D02*
X005723Y002338D01*
X005717Y002180D02*
X007192Y002180D01*
X007192Y002021D02*
X005651Y002021D01*
X005536Y001863D02*
X006839Y001863D01*
X006597Y001704D02*
X005304Y001704D01*
X004788Y001704D02*
X003572Y001704D01*
X003448Y001653D02*
X003697Y001756D01*
X003888Y001946D01*
X003991Y002195D01*
X003991Y002464D01*
X003888Y002713D01*
X003697Y002904D01*
X003448Y003007D01*
X003179Y003007D01*
X002930Y002904D01*
X002740Y002713D01*
X002637Y002464D01*
X002637Y002195D01*
X002740Y001946D01*
X002930Y001756D01*
X003179Y001653D01*
X003448Y001653D01*
X003804Y001863D02*
X004556Y001863D01*
X004441Y002021D02*
X003919Y002021D01*
X003984Y002180D02*
X004376Y002180D01*
X004369Y002338D02*
X003991Y002338D01*
X003977Y002497D02*
X004383Y002497D01*
X004448Y002655D02*
X003912Y002655D01*
X003787Y002814D02*
X004573Y002814D01*
X004828Y002972D02*
X003532Y002972D01*
X003096Y002972D02*
X001160Y002972D01*
X001160Y002814D02*
X002840Y002814D01*
X002716Y002655D02*
X001160Y002655D01*
X001160Y002497D02*
X002650Y002497D01*
X002637Y002338D02*
X001160Y002338D01*
X001160Y002180D02*
X002643Y002180D01*
X002709Y002021D02*
X001160Y002021D01*
X001521Y001863D02*
X002824Y001863D01*
X003056Y001704D02*
X001763Y001704D01*
X001882Y001546D02*
X006478Y001546D01*
X006413Y001387D02*
X001947Y001387D01*
X001957Y001229D02*
X006403Y001229D01*
X006302Y007252D02*
X006820Y007252D01*
X006820Y007410D02*
X006622Y007410D01*
X006780Y007569D02*
X006820Y007569D01*
X006182Y009738D02*
X005970Y009738D01*
X006182Y009738D02*
X006480Y010036D01*
X006480Y010636D01*
X005880Y011236D01*
X005880Y012036D01*
X005640Y012482D02*
X005120Y012482D01*
X005171Y012641D02*
X005589Y012641D01*
X005431Y012799D02*
X005329Y012799D01*
X005365Y012958D02*
X005395Y012958D01*
X005395Y013116D02*
X005365Y013116D01*
X005328Y013275D02*
X005432Y013275D01*
X005591Y013433D02*
X005169Y013433D01*
X005081Y013551D02*
X005365Y013835D01*
X005365Y014023D01*
X004894Y014023D01*
X004894Y013551D01*
X005081Y013551D01*
X005122Y013592D02*
X005638Y013592D01*
X005480Y013750D02*
X005280Y013750D01*
X005365Y013909D02*
X005395Y013909D01*
X005395Y014067D02*
X005365Y014067D01*
X005880Y014036D02*
X005280Y014636D01*
X004280Y014636D01*
X004080Y014436D01*
X004080Y013436D01*
X003823Y013179D01*
X003646Y013179D01*
X003646Y012864D02*
X003508Y012558D01*
X002980Y012286D01*
X002980Y012536D01*
X002330Y013186D01*
X002280Y013186D01*
X002280Y013636D01*
X003280Y014836D01*
X005880Y014836D01*
X007080Y013636D01*
X007080Y013305D01*
X007192Y013892D02*
X006100Y014983D01*
X006027Y015056D01*
X005932Y015096D01*
X003320Y015096D01*
X003308Y015100D01*
X003268Y015096D01*
X003228Y015096D01*
X003217Y015091D01*
X003205Y015090D01*
X003170Y015072D01*
X003133Y015056D01*
X003124Y015048D01*
X003113Y015042D01*
X003088Y015012D01*
X003060Y014983D01*
X003055Y014972D01*
X002088Y013812D01*
X002060Y013783D01*
X002055Y013772D01*
X002047Y013763D01*
X002035Y013725D01*
X002020Y013688D01*
X002020Y013676D01*
X002016Y013664D01*
X002020Y013624D01*
X002020Y013134D01*
X002060Y013039D01*
X002133Y012966D01*
X002218Y012930D01*
X002639Y012510D01*
X002632Y012503D01*
X002583Y012385D01*
X002583Y012187D01*
X002632Y012069D01*
X002723Y011978D01*
X002824Y011936D01*
X002723Y011894D01*
X002632Y011803D01*
X002631Y011800D01*
X002631Y011902D01*
X002631Y012053D01*
X002619Y012099D01*
X002595Y012140D01*
X002561Y012174D01*
X002520Y012197D01*
X002475Y012210D01*
X002388Y012210D01*
X002401Y012222D01*
X002458Y012361D01*
X002458Y012511D01*
X002401Y012650D01*
X002294Y012757D01*
X002155Y012814D01*
X002058Y012814D01*
X002058Y012911D01*
X002001Y013050D01*
X001894Y013157D01*
X001755Y013214D01*
X001605Y013214D01*
X001466Y013157D01*
X001359Y013050D01*
X001302Y012911D01*
X001302Y012761D01*
X001359Y012622D01*
X001420Y012561D01*
X001420Y012210D01*
X001235Y012210D01*
X001160Y012135D01*
X001160Y019564D01*
X007192Y019564D01*
X007192Y013892D01*
X007192Y013909D02*
X007175Y013909D01*
X007192Y014067D02*
X007017Y014067D01*
X006858Y014226D02*
X007192Y014226D01*
X007192Y014384D02*
X006700Y014384D01*
X006541Y014543D02*
X007192Y014543D01*
X007192Y014701D02*
X006383Y014701D01*
X006224Y014860D02*
X007192Y014860D01*
X007192Y015018D02*
X006066Y015018D01*
X005880Y014036D02*
X006480Y013436D01*
X006480Y011236D01*
X006220Y012482D02*
X006120Y012482D01*
X006171Y012641D02*
X006220Y012641D01*
X005620Y011531D02*
X005353Y011531D01*
X005220Y011690D02*
X005540Y011690D01*
X005395Y011848D02*
X005365Y011848D01*
X005365Y012007D02*
X005395Y012007D01*
X005395Y012165D02*
X005365Y012165D01*
X005279Y012324D02*
X005481Y012324D01*
X005511Y011373D02*
X005620Y011373D01*
X005080Y010836D02*
X005080Y010436D01*
X005067Y010326D01*
X005080Y010836D02*
X004880Y011036D01*
X004437Y010679D02*
X004437Y010326D01*
X004437Y010679D02*
X004280Y010836D01*
X004080Y011836D02*
X003430Y012286D01*
X002980Y012286D01*
X003114Y012864D02*
X003114Y013036D01*
X003080Y013036D01*
X002680Y013436D01*
X002349Y012799D02*
X002192Y012799D01*
X002152Y012958D02*
X002039Y012958D01*
X002028Y013116D02*
X001935Y013116D01*
X002020Y013275D02*
X001160Y013275D01*
X001160Y013433D02*
X002020Y013433D01*
X002020Y013592D02*
X001160Y013592D01*
X001160Y013750D02*
X002043Y013750D01*
X002169Y013909D02*
X001160Y013909D01*
X001160Y014067D02*
X002301Y014067D01*
X002433Y014226D02*
X001160Y014226D01*
X001160Y014384D02*
X002565Y014384D01*
X002697Y014543D02*
X001160Y014543D01*
X001160Y014701D02*
X002829Y014701D01*
X002961Y014860D02*
X001160Y014860D01*
X001160Y015018D02*
X003093Y015018D01*
X003242Y014384D02*
X003820Y014384D01*
X003820Y014488D02*
X003820Y014087D01*
X003443Y014087D01*
X003380Y014024D01*
X003317Y014087D01*
X002994Y014087D01*
X003402Y014576D01*
X003857Y014576D01*
X003820Y014488D01*
X003843Y014543D02*
X003374Y014543D01*
X003337Y014067D02*
X003423Y014067D01*
X003110Y014226D02*
X003820Y014226D01*
X004128Y013116D02*
X004395Y013116D01*
X004432Y013275D02*
X004286Y013275D01*
X004340Y013433D02*
X004591Y013433D01*
X004638Y013592D02*
X004340Y013592D01*
X004340Y013750D02*
X004480Y013750D01*
X004395Y013909D02*
X004340Y013909D01*
X004340Y014067D02*
X004395Y014067D01*
X004395Y014226D02*
X004340Y014226D01*
X004866Y013909D02*
X004894Y013909D01*
X004894Y013750D02*
X004866Y013750D01*
X004866Y013592D02*
X004894Y013592D01*
X004930Y016635D02*
X005199Y016635D01*
X005448Y016738D01*
X005638Y016928D01*
X005741Y017177D01*
X005741Y017446D01*
X005638Y017695D01*
X005448Y017885D01*
X005199Y017988D01*
X004930Y017988D01*
X004681Y017885D01*
X004490Y017695D01*
X004387Y017446D01*
X004387Y017177D01*
X004490Y016928D01*
X004681Y016738D01*
X004930Y016635D01*
X004657Y016762D02*
X003503Y016762D01*
X003479Y016738D02*
X003670Y016928D01*
X003773Y017177D01*
X003773Y017446D01*
X003670Y017695D01*
X003479Y017885D01*
X003230Y017988D01*
X002961Y017988D01*
X002712Y017885D01*
X002522Y017695D01*
X002419Y017446D01*
X002419Y017177D01*
X002522Y016928D01*
X002712Y016738D01*
X002961Y016635D01*
X003230Y016635D01*
X003479Y016738D01*
X003661Y016920D02*
X004499Y016920D01*
X004428Y017079D02*
X003732Y017079D01*
X003773Y017237D02*
X004387Y017237D01*
X004387Y017396D02*
X003773Y017396D01*
X003728Y017554D02*
X004432Y017554D01*
X004508Y017713D02*
X003652Y017713D01*
X003494Y017871D02*
X004666Y017871D01*
X005462Y017871D02*
X007192Y017871D01*
X007192Y017713D02*
X005621Y017713D01*
X005696Y017554D02*
X007192Y017554D01*
X007192Y017396D02*
X005741Y017396D01*
X005741Y017237D02*
X007192Y017237D01*
X007192Y017079D02*
X005700Y017079D01*
X005630Y016920D02*
X007192Y016920D01*
X007192Y016762D02*
X005471Y016762D01*
X007192Y016603D02*
X001160Y016603D01*
X001160Y016445D02*
X007192Y016445D01*
X007192Y016286D02*
X001160Y016286D01*
X001160Y016128D02*
X007192Y016128D01*
X007192Y015969D02*
X001160Y015969D01*
X001160Y015811D02*
X007192Y015811D01*
X007192Y015652D02*
X001160Y015652D01*
X001160Y015494D02*
X007192Y015494D01*
X007192Y015335D02*
X001160Y015335D01*
X001160Y015177D02*
X007192Y015177D01*
X007192Y018030D02*
X001160Y018030D01*
X001160Y018188D02*
X007192Y018188D01*
X007192Y018347D02*
X001160Y018347D01*
X001160Y018505D02*
X007192Y018505D01*
X007192Y018664D02*
X001160Y018664D01*
X001160Y018822D02*
X007192Y018822D01*
X007192Y018981D02*
X001160Y018981D01*
X001160Y019139D02*
X007192Y019139D01*
X007192Y019298D02*
X001160Y019298D01*
X001160Y019456D02*
X007192Y019456D01*
X003114Y013179D02*
X003114Y013036D01*
X002694Y012007D02*
X002631Y012007D01*
X002631Y011902D02*
X002352Y011902D01*
X002352Y011902D01*
X002631Y011902D01*
X002631Y011848D02*
X002677Y011848D01*
X002592Y012165D02*
X002570Y012165D01*
X002583Y012324D02*
X002443Y012324D01*
X002458Y012482D02*
X002624Y012482D01*
X002508Y012641D02*
X002405Y012641D01*
X002080Y012436D02*
X002037Y012194D01*
X002037Y011902D01*
X002037Y011370D02*
X002037Y011079D01*
X001723Y011902D02*
X001680Y011944D01*
X001680Y012836D01*
X001425Y013116D02*
X001160Y013116D01*
X001160Y012958D02*
X001321Y012958D01*
X001302Y012799D02*
X001160Y012799D01*
X001160Y012641D02*
X001352Y012641D01*
X001420Y012482D02*
X001160Y012482D01*
X001160Y012324D02*
X001420Y012324D01*
X001190Y012165D02*
X001160Y012165D01*
X001160Y008520D02*
X001524Y008520D01*
X001750Y008044D02*
X002120Y008044D01*
X002160Y008203D02*
X001980Y008203D01*
X001923Y008479D02*
X002590Y008479D01*
X002590Y008164D02*
X002590Y008164D01*
X002280Y005936D02*
X002280Y005362D01*
X002280Y005936D01*
X002280Y005936D01*
X002280Y005825D02*
X002280Y005825D01*
X002280Y005667D02*
X002280Y005667D01*
X002280Y005508D02*
X002280Y005508D01*
X002652Y004240D02*
X003108Y004240D01*
X002950Y004399D02*
X002810Y004399D01*
X001595Y007569D02*
X001540Y007569D01*
X001540Y007727D02*
X001683Y007727D01*
X001725Y007886D02*
X001627Y007886D01*
X001160Y016762D02*
X002689Y016762D01*
X002530Y016920D02*
X001160Y016920D01*
X001160Y017079D02*
X002460Y017079D01*
X002419Y017237D02*
X001160Y017237D01*
X001160Y017396D02*
X002419Y017396D01*
X002464Y017554D02*
X001160Y017554D01*
X001160Y017713D02*
X002539Y017713D01*
X002698Y017871D02*
X001160Y017871D01*
D19*
X002680Y013436D03*
X002080Y012436D03*
X001680Y012836D03*
X001880Y009836D03*
X001280Y008036D03*
X002280Y005036D03*
X002880Y004836D03*
X003680Y005836D03*
X004480Y005836D03*
X004080Y008636D03*
X004880Y011036D03*
X004080Y011236D03*
X003680Y014236D03*
X004080Y016836D03*
X006280Y006336D03*
X007080Y004836D03*
X006480Y002136D03*
X001680Y002236D03*
M02*
