%
M48
M72
T01C0.0236
T02C0.0374
T03C0.0394
%
T01
X1680Y2236
X2280Y5036
X2880Y4836
X3680Y5836
X4480Y5836
X4080Y8636
X4880Y11036
X4080Y11236
X3680Y14236
X4080Y16836
X2680Y13436
X2080Y12436
X1680Y12836
X1880Y9836
X1280Y8036
X6280Y6336
X7080Y4836
X6480Y2136
T02
X5880Y12036
X5880Y13036
X5880Y14036
X4880Y14036
X4880Y13036
X4880Y12036
T03
X1280Y1230
X3314Y2330
X5046Y2330
X7080Y1230
X5064Y17312
X3096Y17312
M30
